<svg width="55" height="56" viewBox="0 0 55 56" fill="none" xmlns="http://www.w3.org/2000/svg">
<path d="M20.5535 11.4982L27.5012 22.9895L34.4467 11.4982L27.5012 0.00485229L20.5535 11.4982Z" fill="#D53231"/>
<path d="M41.392 22.9895H27.501L34.4465 34.4828H48.3397L41.392 22.9895Z" fill="#D53231"/>
<path d="M13.6078 22.9895H27.5011L20.5534 34.4828H6.66016L13.6078 22.9895Z" fill="#D53231"/>
<path d="M7.67789 39.503V46.2887H6.03526V41.5207L3.83786 44.9328L1.6318 41.5207V46.2887H0V39.503H2.11505L3.83786 42.2653L5.52167 39.503H7.67789Z" fill="#D53231"/>
<path d="M10.6945 39.503H9.06274V46.2887H10.6945V39.503Z" fill="#D53231"/>
<path d="M13.3751 40.9174H11.4053V39.503H16.9876V40.9174H15.0178V46.2887H13.3751V40.9174Z" fill="#D53231"/>
<path d="M17.5943 46.202V44.7875C17.9324 44.846 18.7537 44.9792 19.7592 44.9792C20.6001 44.9792 21.0226 44.8743 21.0226 44.4445C21.0226 43.9481 20.6629 43.8815 19.4819 43.3751C18.3333 42.8868 17.4795 42.457 17.4795 41.3109C17.4795 39.8964 18.4027 39.4081 20.2295 39.4081C21.1635 39.4081 21.8418 39.4848 22.2622 39.5332V40.9477C21.8526 40.9093 21.1028 40.8145 20.2707 40.8145C19.2847 40.8145 19.0896 40.9093 19.0896 41.2826C19.0896 41.664 19.6227 41.8557 20.4245 42.1906C21.6251 42.6971 22.6111 43.1168 22.6111 44.4082C22.6111 45.7561 21.7074 46.3856 19.7571 46.3856C18.9899 46.3836 18.2705 46.3069 17.5943 46.202Z" fill="#D53231"/>
<path d="M23.5884 43.9945V39.503H25.2202V43.938C25.2202 44.7129 25.7121 44.9792 26.4922 44.9792C27.2724 44.9792 27.7751 44.7108 27.7751 43.938V39.503H29.4069V43.9945C29.4069 45.637 28.2476 46.3836 26.4922 46.3836C24.7369 46.3836 23.5884 45.639 23.5884 43.9945Z" fill="#D53231"/>
<path d="M30.8047 39.503H33.9859C35.4747 39.503 36.296 40.0094 36.296 41.2524C36.296 42.237 35.6914 42.5417 35.1366 42.7435C35.7933 42.9251 36.4824 43.2601 36.4824 44.3961C36.4824 45.5805 35.7131 46.2887 34.1008 46.2887H30.8047V39.503ZM33.7497 42.2471C34.4063 42.2471 34.6426 41.9223 34.6426 41.4723C34.6426 40.9275 34.3543 40.7842 33.7497 40.7842H32.4365V42.2471H33.7497ZM33.8624 45.0075C34.519 45.0075 34.7856 44.7875 34.7856 44.1943C34.7856 43.6677 34.5385 43.4497 33.9339 43.4497H32.4365V45.0075H33.8624Z" fill="#D53231"/>
<path d="M39.0981 39.503H37.4663V46.2887H39.0981V39.503Z" fill="#D53231"/>
<path d="M40.2899 46.202V44.7875C40.628 44.846 41.4493 44.9792 42.4548 44.9792C43.2956 44.9792 43.716 44.8743 43.716 44.4445C43.716 43.9481 43.3563 43.8815 42.1774 43.3751C41.0267 42.8868 40.175 42.457 40.175 41.3109C40.175 39.8964 41.1004 39.4081 42.925 39.4081C43.8591 39.4081 44.5373 39.4848 44.9578 39.5332V40.9477C44.546 40.9093 43.7984 40.8145 42.9662 40.8145C41.9802 40.8145 41.7852 40.9093 41.7852 41.2826C41.7852 41.664 42.3204 41.8557 43.1201 42.1906C44.3206 42.6971 45.3066 43.1168 45.3066 44.4082C45.3066 45.7561 44.403 46.3856 42.4526 46.3856C41.6855 46.3836 40.966 46.3069 40.2899 46.202Z" fill="#D53231"/>
<path d="M52.031 39.503V46.2887H50.3992V43.593H47.8139V46.2887H46.1821V39.503H47.8139V42.1785H50.3992V39.503H52.031Z" fill="#D53231"/>
<path d="M55 39.503H53.3682V46.2887H55V39.503Z" fill="#D53231"/>
<path d="M15.4335 48.1222V54.908H13.8323V50.14L11.6924 53.55L9.53986 50.14V54.908H7.94922V48.1222H10.0109L11.6924 50.8845L13.3316 48.1222H15.4335Z" fill="#D53231"/>
<path d="M16.5234 51.5161C16.5234 49.0887 17.4951 48.0274 19.5843 48.0274C21.6756 48.0274 22.6452 49.0887 22.6452 51.5161C22.6452 53.9435 21.6756 55.0049 19.5843 55.0049C17.4951 55.0028 16.5234 53.9435 16.5234 51.5161ZM20.9975 51.5161C20.9975 50.1299 20.7482 49.4338 19.5864 49.4338C18.4267 49.4338 18.1753 50.1319 18.1753 51.5161C18.1753 52.9124 18.4246 53.6186 19.5864 53.6186C20.7461 53.6166 20.9975 52.9104 20.9975 51.5161Z" fill="#D53231"/>
<path d="M24.8294 49.5367H22.9092V48.1222H28.3507V49.5367H26.4306V54.908H24.8294V49.5367Z" fill="#D53231"/>
<path d="M28.6128 51.5161C28.6128 49.0887 29.5824 48.0274 31.6737 48.0274C33.7649 48.0274 34.7345 49.0887 34.7345 51.5161C34.7345 53.9435 33.7649 55.0049 31.6737 55.0049C29.5824 55.0028 28.6128 53.9435 28.6128 51.5161ZM33.0847 51.5161C33.0847 50.1299 32.8355 49.4338 31.6737 49.4338C30.5118 49.4338 30.2626 50.1319 30.2626 51.5161C30.2626 52.9124 30.5118 53.6186 31.6737 53.6186C32.8334 53.6166 33.0847 52.9104 33.0847 51.5161Z" fill="#D53231"/>
<path d="M35.8372 48.1222H38.7185C40.2394 48.1222 41.2111 48.667 41.2111 50.3014C41.2111 51.3527 40.6619 52.0327 39.7514 52.2425L41.5026 54.91H39.6416L38.1418 52.4826H37.432V54.91H35.8414V48.1222H35.8372ZM38.6171 51.161C39.3374 51.161 39.5571 50.818 39.5571 50.3014C39.5571 49.7748 39.3374 49.4317 38.6171 49.4317H37.4257V51.161H38.6171Z" fill="#D53231"/>
<path d="M42.1596 54.8212V53.4068C42.4891 53.4633 43.2897 53.5985 44.2699 53.5985C45.0895 53.5985 45.4993 53.4935 45.4993 53.0637C45.4993 52.5674 45.1486 52.5008 43.9995 51.9943C42.8778 51.506 42.0476 51.0762 42.0476 49.9301C42.0476 48.5157 42.9475 48.0274 44.7282 48.0274C45.6387 48.0274 46.2999 48.104 46.7097 48.1505V49.5649C46.3083 49.5266 45.5795 49.4317 44.7684 49.4317C43.8072 49.4317 43.6171 49.5266 43.6171 49.8999C43.6171 50.2812 44.1368 50.4729 44.9184 50.8079C46.0886 51.3143 47.0498 51.734 47.0498 53.0254C47.0498 54.3733 46.1689 55.0028 44.2677 55.0028C43.52 55.0028 42.8207 54.9262 42.1596 54.8212Z" fill="#D53231"/>
</svg>
