<svg width="54" height="48" viewBox="0 0 54 48" fill="none" xmlns="http://www.w3.org/2000/svg">
<path d="M22.3281 8.00048L26.9478 15.9995L31.566 8.00048L26.9478 0L22.3281 8.00048Z" fill="#D53231"/>
<path d="M36.1846 15.9995H26.9482L31.5664 24H40.8043L36.1846 15.9995Z" fill="#D53231"/>
<path d="M17.7105 15.9995H26.9483L22.3286 24H13.0908L17.7105 15.9995Z" fill="#D53231"/>
<path d="M7.5236 32.0973V39.0585H5.91398V34.1672L3.76074 37.6675L1.599 34.1672V39.0585H0V32.0973H2.07255L3.76074 34.9311L5.41071 32.0973H7.5236Z" fill="#D53231"/>
<path d="M10.4799 32.0973H8.88086V39.0585H10.4799V32.0973Z" fill="#D53231"/>
<path d="M13.107 33.5483H11.1768V32.0973H16.6469V33.5483H14.7167V39.0585H13.107V33.5483Z" fill="#D53231"/>
<path d="M17.2405 38.9695V37.5185C17.5717 37.5785 18.3766 37.7151 19.3619 37.7151C20.1858 37.7151 20.5999 37.6075 20.5999 37.1666C20.5999 36.6574 20.2474 36.5891 19.0901 36.0695C17.9646 35.5686 17.1279 35.1277 17.1279 33.952C17.1279 32.5009 18.0325 32 19.8227 32C20.7379 32 21.4026 32.0787 21.8145 32.1283V33.5794C21.4132 33.54 20.6784 33.4428 19.863 33.4428C18.8968 33.4428 18.7057 33.54 18.7057 33.923C18.7057 34.3142 19.2281 34.5108 20.0138 34.8545C21.1902 35.374 22.1564 35.8046 22.1564 37.1293C22.1564 38.5121 21.2709 39.1579 19.3597 39.1579C18.608 39.1558 17.903 39.0772 17.2405 38.9695Z" fill="#D53231"/>
<path d="M23.1143 36.705V32.0973H24.7133V36.647C24.7133 37.4419 25.1953 37.7151 25.9598 37.7151C26.7242 37.7151 27.2169 37.4398 27.2169 36.647V32.0973H28.8159V36.705C28.8159 38.3899 27.6798 39.1558 25.9598 39.1558C24.2397 39.1558 23.1143 38.392 23.1143 36.705Z" fill="#D53231"/>
<path d="M30.1855 32.0973H33.3029C34.7617 32.0973 35.5665 32.6168 35.5665 33.8919C35.5665 34.9021 34.9741 35.2146 34.4304 35.4216C35.0739 35.6079 35.7491 35.9515 35.7491 37.1169C35.7491 38.332 34.9953 39.0585 33.4154 39.0585H30.1855V32.0973ZM33.0714 34.9124C33.7148 34.9124 33.9463 34.5792 33.9463 34.1176C33.9463 33.5587 33.6639 33.4117 33.0714 33.4117H31.7845V34.9124H33.0714ZM33.1818 37.7441C33.8252 37.7441 34.0864 37.5185 34.0864 36.9099C34.0864 36.3697 33.8444 36.1461 33.2519 36.1461H31.7845V37.7441H33.1818Z" fill="#D53231"/>
<path d="M38.3129 32.0973H36.7139V39.0585H38.3129V32.0973Z" fill="#D53231"/>
<path d="M39.4807 38.9695V37.5185C39.812 37.5785 40.6168 37.7151 41.6021 37.7151C42.426 37.7151 42.838 37.6075 42.838 37.1666C42.838 36.6574 42.4855 36.5891 41.3303 36.0695C40.2027 35.5686 39.3682 35.1277 39.3682 33.952C39.3682 32.5009 40.2749 32 42.0629 32C42.9781 32 43.6428 32.0787 44.0548 32.1283V33.5794C43.6513 33.54 42.9187 33.4428 42.1032 33.4428C41.137 33.4428 40.9459 33.54 40.9459 33.923C40.9459 34.3142 41.4704 34.5108 42.254 34.8545C43.4304 35.374 44.3966 35.8046 44.3966 37.1293C44.3966 38.5121 43.5111 39.1579 41.6 39.1579C40.8482 39.1558 40.1432 39.0772 39.4807 38.9695Z" fill="#D53231"/>
<path d="M50.9862 32.0973V39.0585H49.3872V36.2931H46.8539V39.0585H45.2549V32.0973H46.8539V34.842H49.3872V32.0973H50.9862Z" fill="#D53231"/>
<path d="M53.8949 32.0973H52.2959V39.0585H53.8949V32.0973Z" fill="#D53231"/>
<path d="M15.1229 40.9394V47.9006H13.5539V43.0093L11.457 46.5076L9.34773 43.0093V47.9006H7.78906V40.9394H9.80933L11.457 43.7732L13.0633 40.9394H15.1229Z" fill="#D53231"/>
<path d="M16.1904 44.421C16.1904 41.9309 17.1426 40.8421 19.1898 40.8421C21.239 40.8421 22.1891 41.9309 22.1891 44.421C22.1891 46.9112 21.239 48 19.1898 48C17.1426 47.9979 16.1904 46.9112 16.1904 44.421ZM20.5746 44.421C20.5746 42.999 20.3303 42.2849 19.1919 42.2849C18.0555 42.2849 17.8091 43.0011 17.8091 44.421C17.8091 45.8535 18.0534 46.5779 19.1919 46.5779C20.3283 46.5759 20.5746 45.8514 20.5746 44.421Z" fill="#D53231"/>
<path d="M24.3298 42.3904H22.4482V40.9394H27.7804V42.3904H25.8988V47.9006H24.3298V42.3904Z" fill="#D53231"/>
<path d="M28.0371 44.421C28.0371 41.9309 28.9872 40.8421 31.0365 40.8421C33.0857 40.8421 34.0358 41.9309 34.0358 44.421C34.0358 46.9112 33.0857 48 31.0365 48C28.9872 47.9979 28.0371 46.9112 28.0371 44.421ZM32.4192 44.421C32.4192 42.999 32.1749 42.2849 31.0365 42.2849C29.898 42.2849 29.6537 43.0011 29.6537 44.421C29.6537 45.8535 29.898 46.5779 31.0365 46.5779C32.1729 46.5759 32.4192 45.8514 32.4192 44.421Z" fill="#D53231"/>
<path d="M35.1162 40.9394H37.9396C39.43 40.9394 40.3822 41.4983 40.3822 43.1749C40.3822 44.2534 39.844 44.951 38.9518 45.1662L40.6678 47.9027H38.8442L37.3745 45.4126H36.679V47.9027H35.1204V40.9394H35.1162ZM37.8403 44.0567C38.5461 44.0567 38.7614 43.7048 38.7614 43.1749C38.7614 42.6347 38.5461 42.2828 37.8403 42.2828H36.6728V44.0567H37.8403Z" fill="#D53231"/>
<path d="M41.3119 47.8116V46.3606C41.6348 46.4185 42.4193 46.5572 43.3797 46.5572C44.1829 46.5572 44.5844 46.4496 44.5844 46.0087C44.5844 45.4995 44.2408 45.4312 43.1148 44.9116C42.0156 44.4107 41.2021 43.9698 41.2021 42.7941C41.2021 41.343 42.0839 40.8421 43.8289 40.8421C44.7211 40.8421 45.369 40.9208 45.7705 40.9684V42.4194C45.3772 42.3801 44.6631 42.2828 43.8682 42.2828C42.9264 42.2828 42.7401 42.3801 42.7401 42.763C42.7401 43.1542 43.2493 43.3509 44.0152 43.6945C45.162 44.214 46.1038 44.6446 46.1038 45.9694C46.1038 47.3521 45.2406 47.9979 43.3777 47.9979C42.6449 47.9979 41.9597 47.9193 41.3119 47.8116Z" fill="#D53231"/>
</svg>
