<svg width="122" height="124" viewBox="0 0 122 124" fill="none" xmlns="http://www.w3.org/2000/svg">
<path d="M48.683 21.3346L61.002 42.6654L73.3172 21.3346L61.002 0L48.683 21.3346Z" fill="#D53231"/>
<path d="M85.6323 42.6654H61.002L73.3171 64H97.9514L85.6323 42.6654Z" fill="#D53231"/>
<path d="M36.3677 42.6654H61.0019L48.6829 64H24.0487L36.3677 42.6654Z" fill="#D53231"/>
<path d="M17.2965 88.2189V103.882H13.6749V92.8763L8.83007 100.752L3.96617 92.8763V103.882H0.368408V88.2189H5.03164L8.83007 94.5949L12.5425 88.2189H17.2965Z" fill="#D53231"/>
<path d="M23.9474 88.2189H20.3496V103.882H23.9474V88.2189Z" fill="#D53231"/>
<path d="M29.8576 91.4837H25.5145V88.2189H37.8224V91.4837H33.4793V103.882H29.8576V91.4837Z" fill="#D53231"/>
<path d="M39.1602 103.681V100.417C39.9056 100.552 41.7164 100.859 43.9333 100.859C45.7872 100.859 46.7189 100.617 46.7189 99.6248C46.7189 98.4791 45.9257 98.3254 43.3218 97.1564C40.7895 96.0293 38.907 95.0373 38.907 92.3919C38.907 89.1271 40.9424 88 44.9701 88C47.0294 88 48.5249 88.177 49.4518 88.2888V91.5536C48.5488 91.4651 46.8956 91.2462 45.0609 91.2462C42.887 91.2462 42.457 91.4651 42.457 92.3267C42.457 93.207 43.6323 93.6494 45.4001 94.4225C48.0471 95.5915 50.2211 96.5603 50.2211 99.541C50.2211 102.652 48.2287 104.105 43.9286 104.105C42.2372 104.101 40.6509 103.924 39.1602 103.681Z" fill="#D53231"/>
<path d="M52.3759 98.5863V88.2189H55.9736V98.4558C55.9736 100.244 57.0582 100.859 58.7782 100.859C60.4983 100.859 61.6068 100.24 61.6068 98.4558V88.2189H65.2045V98.5863C65.2045 102.377 62.6483 104.101 58.7782 104.101C54.9081 104.101 52.3759 102.382 52.3759 98.5863Z" fill="#D53231"/>
<path d="M68.2863 88.2189H75.3002C78.5826 88.2189 80.3935 89.3879 80.3935 92.2569C80.3935 94.5297 79.0604 95.2329 77.8373 95.6987C79.285 96.1178 80.8044 96.891 80.8044 99.5131C80.8044 102.247 79.1082 103.882 75.5534 103.882H68.2863V88.2189ZM74.7794 94.5529C76.2271 94.5529 76.7479 93.8031 76.7479 92.7645C76.7479 91.507 76.1125 91.1763 74.7794 91.1763H71.884V94.5529H74.7794ZM75.0279 100.924C76.4756 100.924 77.0633 100.417 77.0633 99.0473C77.0633 97.8318 76.5186 97.3288 75.1855 97.3288H71.884V100.924H75.0279Z" fill="#D53231"/>
<path d="M86.5714 88.2189H82.9736V103.882H86.5714V88.2189Z" fill="#D53231"/>
<path d="M89.1992 103.681V100.417C89.9445 100.552 91.7553 100.859 93.9723 100.859C95.8261 100.859 96.753 100.617 96.753 99.6248C96.753 98.4791 95.9599 98.3254 93.3607 97.1564C90.8236 96.0293 88.9459 95.0373 88.9459 92.3919C88.9459 89.1271 90.9861 88 95.0091 88C97.0684 88 98.5638 88.177 99.4908 88.2888V91.5536C98.583 91.4651 96.9346 91.2462 95.0999 91.2462C92.9259 91.2462 92.4959 91.4651 92.4959 92.3267C92.4959 93.207 93.676 93.6494 95.4391 94.4225C98.086 95.5915 100.26 96.5603 100.26 99.541C100.26 102.652 98.2676 104.105 93.9675 104.105C92.2761 104.101 90.6899 103.924 89.1992 103.681Z" fill="#D53231"/>
<path d="M115.086 88.2189V103.882H111.488V97.6594H105.788V103.882H102.19V88.2189H105.788V94.3946H111.488V88.2189H115.086Z" fill="#D53231"/>
<path d="M121.632 88.2189H118.034V103.882H121.632V88.2189Z" fill="#D53231"/>
<path d="M34.3959 108.114V123.776H30.8656V112.771L26.1477 120.642L21.4018 112.771V123.776H17.8948V108.114H22.4404L26.1477 114.49L29.7618 108.114H34.3959Z" fill="#D53231"/>
<path d="M36.7991 115.947C36.7991 110.345 38.9415 107.895 43.5476 107.895C48.1584 107.895 50.2962 110.345 50.2962 115.947C50.2962 121.55 48.1584 124 43.5476 124C38.9415 123.995 36.7991 121.55 36.7991 115.947ZM46.6634 115.947C46.6634 112.748 46.1138 111.141 43.5523 111.141C40.9954 111.141 40.4411 112.752 40.4411 115.947C40.4411 119.17 40.9907 120.8 43.5523 120.8C46.1092 120.796 46.6634 119.166 46.6634 115.947Z" fill="#D53231"/>
<path d="M55.112 111.378H50.8784V108.114H62.8759V111.378H58.6423V123.776H55.112V111.378Z" fill="#D53231"/>
<path d="M63.4532 115.947C63.4532 110.345 65.591 107.895 70.2018 107.895C74.8126 107.895 76.9504 110.345 76.9504 115.947C76.9504 121.55 74.8126 124 70.2018 124C65.591 123.995 63.4532 121.55 63.4532 115.947ZM73.3129 115.947C73.3129 112.748 72.7634 111.141 70.2018 111.141C67.6402 111.141 67.0907 112.752 67.0907 115.947C67.0907 119.17 67.6402 120.8 70.2018 120.8C72.7587 120.796 73.3129 119.166 73.3129 115.947Z" fill="#D53231"/>
<path d="M79.3816 108.114H85.7343C89.0876 108.114 91.23 109.371 91.23 113.144C91.23 115.57 90.0191 117.14 88.0117 117.624L91.8727 123.781H87.7695L84.4628 118.178H82.8979V123.781H79.3909V108.114H79.3816ZM85.5107 115.128C87.0989 115.128 87.5833 114.336 87.5833 113.144C87.5833 111.928 87.0989 111.136 85.5107 111.136H82.884V115.128H85.5107Z" fill="#D53231"/>
<path d="M93.3212 123.576V120.311C94.0477 120.442 95.8129 120.754 97.9739 120.754C99.781 120.754 100.685 120.512 100.685 119.52C100.685 118.374 99.9114 118.22 97.3778 117.051C94.9047 115.924 93.0743 114.932 93.0743 112.287C93.0743 109.022 95.0584 107.895 98.9846 107.895C100.992 107.895 102.45 108.072 103.353 108.179V111.444C102.468 111.355 100.861 111.136 99.0731 111.136C96.9539 111.136 96.5348 111.355 96.5348 112.217C96.5348 113.097 97.6805 113.539 99.4037 114.313C101.984 115.482 104.103 116.45 104.103 119.431C104.103 122.542 102.161 123.995 97.9693 123.995C96.3205 123.995 94.7789 123.818 93.3212 123.576Z" fill="#D53231"/>
</svg>
